<svg width="28" height="31" viewBox="0 0 28 31" fill="none" xmlns="http://www.w3.org/2000/svg">
<path fill-rule="evenodd" clip-rule="evenodd" d="M1.69371 22.6086C2.11688 22.6086 2.45993 22.9517 2.45993 23.3748V28.6958C2.45993 28.811 2.5792 28.9938 2.83143 28.9938H26.0735C26.1924 28.9938 26.2996 28.9478 26.3732 28.8808C26.4457 28.8148 26.4682 28.747 26.4682 28.6958V23.3748C26.4682 22.9517 26.8112 22.6086 27.2344 22.6086C27.6576 22.6086 28.0006 22.9517 28.0006 23.3748V28.6958C28.0006 29.7704 27.0542 30.5262 26.0735 30.5262H2.83143C1.82985 30.5262 0.92749 29.7512 0.92749 28.6958V23.3748C0.92749 22.9517 1.27054 22.6086 1.69371 22.6086Z" fill="#858585"/>
<path fill-rule="evenodd" clip-rule="evenodd" d="M14.4639 0.899017C14.8871 0.899017 15.2302 1.24207 15.2302 1.66524V22.802L18.7983 19.2339C19.0976 18.9346 19.5827 18.9346 19.8819 19.2339C20.1812 19.5331 20.1812 20.0182 19.8819 20.3175L15.0057 25.1937C14.7065 25.4929 14.2214 25.4929 13.9221 25.1937L9.04595 20.3175C8.74672 20.0182 8.74672 19.5331 9.04595 19.2339C9.34518 18.9346 9.83032 18.9346 10.1296 19.2339L13.6977 22.802V1.66524C13.6977 1.24207 14.0408 0.899017 14.4639 0.899017Z" fill="#858585"/>
</svg>
