<svg width="30" height="31" viewBox="0 0 30 31" fill="none" xmlns="http://www.w3.org/2000/svg">
<path d="M3.20459 7.78041H7.39057V1.64497C7.39057 1.23469 7.7053 0.899017 8.08998 0.899017H22.0782C22.4629 0.899017 22.7776 1.23469 22.7776 1.64497V7.78041H26.9636C28.5128 7.78041 29.7717 9.12312 29.7717 10.7754V21.3455C29.7717 22.9978 28.5128 24.3442 26.9636 24.3442H24.9703C24.5856 24.3442 24.2709 24.0085 24.2709 23.5983C24.2709 23.1843 24.5856 22.8523 24.9703 22.8523H26.9636C27.7399 22.8523 28.3729 22.1772 28.3729 21.3455V10.7754C28.3729 9.94366 27.7399 9.27231 26.9636 9.27231H3.20809C2.43175 9.27231 1.79877 9.94739 1.79877 10.7754V21.3455C1.79877 22.1772 2.43175 22.8523 3.20809 22.8523H5.20491C5.59308 22.8523 5.90432 23.1843 5.90432 23.5983C5.90432 24.0085 5.59308 24.3442 5.20491 24.3442H3.20809C1.6589 24.3442 0.399952 22.9978 0.399952 21.3455V10.7754C0.396455 9.12312 1.6554 7.78041 3.20459 7.78041ZM21.3788 2.39092H8.78939V7.78041H21.3788V2.39092ZM9.98539 26.2203C9.98539 26.6343 10.2966 26.9662 10.6848 26.9662H19.4834C19.8681 26.9662 20.1828 26.6343 20.1828 26.2203C20.1828 25.81 19.8681 25.4743 19.4834 25.4743H10.6883C10.3001 25.4743 9.98539 25.81 9.98539 26.2203ZM20.1828 22.4682C20.1828 22.0579 19.8681 21.7222 19.4834 21.7222H10.6883C10.3036 21.7222 9.98888 22.0579 9.98888 22.4682C9.98888 22.8822 10.3036 23.2141 10.6883 23.2141H19.4834C19.8681 23.2141 20.1828 22.8822 20.1828 22.4682ZM6.15961 19.3948C5.77493 19.3948 5.46019 19.0592 5.46019 18.6489C5.46019 18.2349 5.77493 17.9029 6.15961 17.9029H24.0086C24.3933 17.9029 24.708 18.2349 24.708 18.6489C24.708 19.0592 24.3933 19.3948 24.0086 19.3948H23.1378V29.7434C23.1378 30.1574 22.8231 30.4894 22.4384 30.4894H7.73328C7.3486 30.4894 7.03387 30.1574 7.03387 29.7434V19.3948H6.15961ZM8.43269 28.9938H21.739V19.3911H8.43269V28.9938ZM6.88699 12.6403C7.27516 12.6403 7.5864 12.3046 7.5864 11.8943C7.5864 11.484 7.27516 11.1484 6.88699 11.1484H4.47053C4.08585 11.1484 3.77111 11.484 3.77111 11.8943C3.77111 12.3046 4.08585 12.6403 4.47053 12.6403H6.88699Z" fill="#858585"/>
</svg>
