<svg width="48" height="48" viewBox="0 0 48 48" fill="none" xmlns="http://www.w3.org/2000/svg">
<path d="M24 45.172C12.428 45.172 2.914 35.572 2.914 24C2.914 21.6 3.342 19.286 4.114 17.058L16.458 41.058C16.628 41.4 16.8 41.658 17.228 41.658C17.658 41.658 17.828 41.4 18 41.058L23.742 28.286C23.828 28.114 23.914 28.028 24 28.028C24.172 28.028 24.172 28.2 24.258 28.286L30.086 41.058C30.258 41.4 30.428 41.658 30.858 41.658C31.286 41.658 31.458 41.4 31.628 41.058L43.972 17.058C44.742 19.2 45.172 21.514 45.172 24C45.086 35.572 35.572 45.172 24 45.172ZM24 18.514C23.828 18.514 23.828 18.342 23.742 18.258L17.142 4.028C21.5745 2.43113 26.4255 2.43113 30.858 4.028L24.258 18.258C24.172 18.342 24.172 18.514 24 18.514ZM17.058 33.942C16.886 33.942 16.886 33.772 16.8 33.686L6 12.94C7.886 9.856 10.628 7.284 13.8 5.484L21.428 21.94C21.6 22.284 21.772 22.37 22.028 22.37H25.972C26.228 22.37 26.4 22.284 26.572 21.94L34.114 5.484C37.286 7.284 40.028 9.856 41.914 12.94L31.2 33.686C31.114 33.858 31.028 33.942 30.942 33.942C30.772 33.942 30.772 33.772 30.686 33.686L26.572 24.6C26.4 24.258 26.228 24.172 25.972 24.172H22.028C21.772 24.172 21.6 24.258 21.428 24.6L17.314 33.686C17.228 33.772 17.228 33.942 17.058 33.942ZM24 48C37.286 48 48 37.286 48 24C48 10.714 37.286 0 24 0C10.714 0 0 10.714 0 24C0 37.286 10.714 48 24 48Z" fill="#081F4D"/>
</svg>
