<svg width="15" height="15" viewBox="0 0 15 15" fill="none" xmlns="http://www.w3.org/2000/svg">
<path d="M0.409384 6.36301C0.144377 5.64721 -0.0475244 4.91618 0.0103507 4.13946C0.0469034 3.66124 0.226621 3.25308 0.576918 2.91803C0.957675 2.55861 1.31711 2.18091 1.69177 1.81539C2.17914 1.33413 2.7914 1.33718 3.27877 1.81539C3.58033 2.11085 3.87884 2.4124 4.17736 2.71395C4.46673 3.00331 4.75915 3.29268 5.04853 3.58509C5.55722 4.09986 5.56027 4.69991 5.05158 5.21164C4.68605 5.57715 4.32357 5.94571 3.95195 6.30514C3.85447 6.39956 3.84534 6.47875 3.89712 6.59755C4.1408 7.18237 4.49415 7.70323 4.89013 8.19058C5.6882 9.17138 6.58983 10.0425 7.66509 10.7157C7.89659 10.8588 8.14942 10.9655 8.39005 11.0964C8.51494 11.1634 8.59719 11.1421 8.69771 11.0386C9.06019 10.6639 9.43181 10.2953 9.80343 9.92678C10.2908 9.44552 10.9 9.44247 11.3874 9.92678C11.9844 10.5177 12.5784 11.1117 13.1693 11.7087C13.6658 12.2082 13.6628 12.8204 13.1632 13.323C12.8251 13.6642 12.4687 13.987 12.1519 14.3434C11.6889 14.8612 11.1041 15.0318 10.4401 14.9953C9.47141 14.9435 8.57891 14.6206 7.71688 14.2033C5.80395 13.2743 4.17127 11.9859 2.80359 10.3593C1.79229 9.15273 0.957675 7.84335 0.409384 6.36301ZM15 7.45346C15 3.34446 11.6554 0 7.5463 0V1.41942C10.8726 1.41942 13.5805 4.12727 13.5805 7.45346H15ZM10.9183 7.45346H12.3377C12.3377 4.81261 10.1872 2.66217 7.5463 2.66217V4.08158C8.44793 4.08158 9.29473 4.43187 9.93136 5.06848C10.568 5.70508 10.9183 6.55148 10.9183 7.45346Z" fill="#081F4D"/>
</svg>
